<mxfile modified="2022-02-20T09:18:24.366Z" host="app.diagrams.net" agent="5.0 (Windows NT 10.0; Win64; x64) AppleWebKit/537.36 (KHTML, like Gecko) Chrome/98.0.4758.102 Safari/537.36" etag="8TS-5-QYkPia8lGdZgpQ" version="16.6.1" type="github" pages="2">
  <diagram id="Ht1M8jgEwFfnCIfOTk4-" name="Page-1">
    <mxGraphModel dx="1038" dy="578" grid="1" gridSize="10" guides="1" tooltips="1" connect="1" arrows="1" fold="1" page="1" pageScale="1" pageWidth="827" pageHeight="1169" math="0" shadow="0">
      <root>
        <mxCell id="0" />
        <mxCell id="1" parent="0" />
        <mxCell id="zU3qR6wpLO9BMSHHb6V2-13" style="edgeStyle=orthogonalEdgeStyle;rounded=0;orthogonalLoop=1;jettySize=auto;html=1;entryX=0;entryY=0.25;entryDx=0;entryDy=0;" edge="1" parent="1" source="zU3qR6wpLO9BMSHHb6V2-2" target="zU3qR6wpLO9BMSHHb6V2-9">
          <mxGeometry relative="1" as="geometry">
            <Array as="points">
              <mxPoint x="257" y="70" />
              <mxPoint x="257" y="130" />
            </Array>
          </mxGeometry>
        </mxCell>
        <mxCell id="zU3qR6wpLO9BMSHHb6V2-2" value="" style="sketch=0;outlineConnect=0;fontColor=#232F3E;gradientColor=none;fillColor=#232F3D;strokeColor=none;dashed=0;verticalLabelPosition=bottom;verticalAlign=top;align=center;html=1;fontSize=12;fontStyle=0;aspect=fixed;pointerEvents=1;shape=mxgraph.aws4.user;" vertex="1" parent="1">
          <mxGeometry x="120" y="10" width="78" height="78" as="geometry" />
        </mxCell>
        <mxCell id="zU3qR6wpLO9BMSHHb6V2-14" style="edgeStyle=orthogonalEdgeStyle;rounded=0;orthogonalLoop=1;jettySize=auto;html=1;entryX=-0.055;entryY=0.796;entryDx=0;entryDy=0;entryPerimeter=0;" edge="1" parent="1" source="zU3qR6wpLO9BMSHHb6V2-3" target="zU3qR6wpLO9BMSHHb6V2-9">
          <mxGeometry relative="1" as="geometry" />
        </mxCell>
        <mxCell id="zU3qR6wpLO9BMSHHb6V2-3" value="" style="sketch=0;outlineConnect=0;fontColor=#232F3E;gradientColor=none;fillColor=#232F3D;strokeColor=none;dashed=0;verticalLabelPosition=bottom;verticalAlign=top;align=center;html=1;fontSize=12;fontStyle=0;aspect=fixed;pointerEvents=1;shape=mxgraph.aws4.users;" vertex="1" parent="1">
          <mxGeometry x="120" y="200" width="78" height="78" as="geometry" />
        </mxCell>
        <mxCell id="zU3qR6wpLO9BMSHHb6V2-17" style="edgeStyle=orthogonalEdgeStyle;rounded=0;orthogonalLoop=1;jettySize=auto;html=1;" edge="1" parent="1" source="zU3qR6wpLO9BMSHHb6V2-6" target="zU3qR6wpLO9BMSHHb6V2-2">
          <mxGeometry relative="1" as="geometry">
            <mxPoint x="290" y="70" as="targetPoint" />
            <Array as="points">
              <mxPoint x="230" y="60" />
              <mxPoint x="230" y="60" />
            </Array>
          </mxGeometry>
        </mxCell>
        <mxCell id="zU3qR6wpLO9BMSHHb6V2-6" value="E-mail System" style="rounded=0;whiteSpace=wrap;html=1;" vertex="1" parent="1">
          <mxGeometry x="510" y="40" width="220" height="60" as="geometry" />
        </mxCell>
        <mxCell id="zU3qR6wpLO9BMSHHb6V2-7" value="" style="sketch=0;outlineConnect=0;fontColor=#232F3E;gradientColor=none;fillColor=#232F3D;strokeColor=none;dashed=0;verticalLabelPosition=bottom;verticalAlign=top;align=center;html=1;fontSize=12;fontStyle=0;aspect=fixed;pointerEvents=1;shape=mxgraph.aws4.email_2;rotation=0;" vertex="1" parent="1">
          <mxGeometry x="680" y="58.089999999999996" width="37.92" height="23.82" as="geometry" />
        </mxCell>
        <mxCell id="zU3qR6wpLO9BMSHHb6V2-12" style="edgeStyle=orthogonalEdgeStyle;rounded=0;orthogonalLoop=1;jettySize=auto;html=1;" edge="1" parent="1" source="zU3qR6wpLO9BMSHHb6V2-9">
          <mxGeometry relative="1" as="geometry">
            <mxPoint x="500" y="230" as="targetPoint" />
            <Array as="points">
              <mxPoint x="430" y="230" />
              <mxPoint x="430" y="230" />
            </Array>
          </mxGeometry>
        </mxCell>
        <mxCell id="zU3qR6wpLO9BMSHHb6V2-16" style="edgeStyle=orthogonalEdgeStyle;rounded=0;orthogonalLoop=1;jettySize=auto;html=1;entryX=0.5;entryY=1;entryDx=0;entryDy=0;" edge="1" parent="1" source="zU3qR6wpLO9BMSHHb6V2-9" target="zU3qR6wpLO9BMSHHb6V2-6">
          <mxGeometry relative="1" as="geometry">
            <Array as="points">
              <mxPoint x="620" y="150" />
            </Array>
          </mxGeometry>
        </mxCell>
        <mxCell id="zU3qR6wpLO9BMSHHb6V2-9" value="Web App" style="rounded=0;whiteSpace=wrap;html=1;" vertex="1" parent="1">
          <mxGeometry x="320" y="80" width="80" height="200" as="geometry" />
        </mxCell>
        <mxCell id="zU3qR6wpLO9BMSHHb6V2-10" value="" style="sketch=0;outlineConnect=0;fontColor=#232F3E;gradientColor=none;fillColor=#232F3D;strokeColor=none;dashed=0;verticalLabelPosition=bottom;verticalAlign=top;align=center;html=1;fontSize=12;fontStyle=0;aspect=fixed;pointerEvents=1;shape=mxgraph.aws4.internet;" vertex="1" parent="1">
          <mxGeometry x="339.37999999999994" y="110" width="41.24" height="25.38" as="geometry" />
        </mxCell>
        <mxCell id="zU3qR6wpLO9BMSHHb6V2-11" value="Web api" style="rounded=0;whiteSpace=wrap;html=1;" vertex="1" parent="1">
          <mxGeometry x="510" y="200" width="220" height="60" as="geometry" />
        </mxCell>
        <mxCell id="zU3qR6wpLO9BMSHHb6V2-18" value="" style="sketch=0;outlineConnect=0;fontColor=#232F3E;gradientColor=none;fillColor=#232F3D;strokeColor=none;dashed=0;verticalLabelPosition=bottom;verticalAlign=top;align=center;html=1;fontSize=12;fontStyle=0;aspect=fixed;pointerEvents=1;shape=mxgraph.aws4.forums;" vertex="1" parent="1">
          <mxGeometry x="680" y="216" width="28.74" height="28" as="geometry" />
        </mxCell>
      </root>
    </mxGraphModel>
  </diagram>
  <diagram id="Hnpa54cdRQ-cuYvV8qvB" name="Page-2">
    <mxGraphModel dx="1038" dy="578" grid="1" gridSize="10" guides="1" tooltips="1" connect="1" arrows="1" fold="1" page="1" pageScale="1" pageWidth="850" pageHeight="1100" math="0" shadow="0">
      <root>
        <mxCell id="QxS9I6-90pYfQLuc55Ne-0" />
        <mxCell id="QxS9I6-90pYfQLuc55Ne-1" parent="QxS9I6-90pYfQLuc55Ne-0" />
      </root>
    </mxGraphModel>
  </diagram>
</mxfile>
